<svg class="curtain-svg--mobile" width="40" height="256" xmlns="http://www.w3.org/2000/svg"><rect x="18" width="4" height="256" rx="2" class="curtain-svg__line"/><rect x="1" y="109" width="38" height="38" rx="19" fill="#fff"/><g class="curtain-svg__triangles"><path d="m16 119-8 9 8 9v-18ZM32 128l-8-9v18l8-9Z"/></g><rect x="1" y="109" width="38" height="38" rx="19" fill="none" class="curtain-svg__stroke"/></svg><svg class="curtain-svg--deskop" width="40" height="512" fill="none" xmlns="http://www.w3.org/2000/svg"><rect x="18" width="4" height="512" rx="2" fill="#666" class="curtain-svg__line"/><rect x="1" y="237" width="38" height="38" rx="19" fill="#fff"/><g class="curtain-svg__triangles" fill="#666"><path d="m16 247-8 9 8 9v-18ZM32 256l-8-9v18l8-9Z"/></g><rect x="1" y="237" width="38" height="38" rx="19" stroke="#666" stroke-width="2" class="curtain-svg__stroke"/></svg>